<svg width="81" height="80" viewBox="0 0 81 80" fill="none" xmlns="http://www.w3.org/2000/svg">
<rect x="4.5" y="4" width="72" height="72" rx="36" fill="#636363"/>
<path d="M40.5 20C34.9772 20 30.5 24.4772 30.5 30C30.5 35.5228 34.9772 40 40.5 40C46.0228 40 50.5 35.5228 50.5 30C50.5 24.4772 46.0228 20 40.5 20ZM28.7499 44C26.4033 44 24.5 45.9013 24.5 48.2489L24.5 49C24.5 52.7555 26.4417 55.5669 29.4202 57.3802C32.3491 59.1633 36.2861 60 40.5 60C44.7139 60 48.6509 59.1633 51.5798 57.3802C54.5583 55.5669 56.5 52.7555 56.5 49L56.5 48.2487C56.5 45.9011 54.5967 44 52.2502 44H28.7499Z" fill="white"/>
<path fill-rule="evenodd" clip-rule="evenodd" d="M40.5 76C60.3823 76 76.5 59.8823 76.5 40C76.5 20.1177 60.3823 4 40.5 4C20.6177 4 4.5 20.1177 4.5 40C4.5 59.8823 20.6177 76 40.5 76ZM40.5 80C62.5914 80 80.5 62.0914 80.5 40C80.5 17.9086 62.5914 0 40.5 0C18.4086 0 0.5 17.9086 0.5 40C0.5 62.0914 18.4086 80 40.5 80Z" fill="white"/>
</svg>
